HIERARCHY
ROOT __0
{
	OFFSET 0.0 0.0 0.0
	CHANNELS 0
	JOINT Bone
	{
		OFFSET -0.441137 0.000000 -0.879299
		CHANNELS 6 Xposition Yposition Zposition Xrotation Yrotation Zrotation
		JOINT Bone.001
		{
			OFFSET -1.044118 0.000000 2.758596
			CHANNELS 3 Xrotation Yrotation Zrotation
			JOINT Bone.002
			{
				OFFSET -0.197107 -0.120437 2.846406
				CHANNELS 3 Xrotation Yrotation Zrotation
				JOINT Bone.003
				{
					OFFSET -0.841422 0.120437 2.826213
					CHANNELS 3 Xrotation Yrotation Zrotation
					JOINT Bone.004
					{
						OFFSET -0.201381 -0.000000 2.503220
						CHANNELS 3 Xrotation Yrotation Zrotation
						JOINT Bone.005
						{
							OFFSET 0.778249 -0.000000 4.437727
							CHANNELS 6 Xposition Yposition Zposition Xrotation Yrotation Zrotation
							JOINT Bone.006
							{
								OFFSET 0.387982 0.000000 0.969224
								CHANNELS 3 Xrotation Yrotation Zrotation
								JOINT Bone.007
								{
									OFFSET 0.129733 -0.000000 2.383711
									CHANNELS 3 Xrotation Yrotation Zrotation
									JOINT Bone.007_end
									{
										OFFSET 0.851824 -0.000000 3.284870
										CHANNELS 3 Xrotation Yrotation Zrotation
										End Site
										{
											OFFSET 0.851824 -0.000000 3.284870
										}
									}
								}
							}
						}
						JOINT lats.l
						{
							OFFSET 0.778249 -0.000000 4.437727
							CHANNELS 6 Xposition Yposition Zposition Xrotation Yrotation Zrotation
							JOINT shoulder.l
							{
								OFFSET 0.479078 4.011610 -1.588903
								CHANNELS 3 Xrotation Yrotation Zrotation
								JOINT upper_arm.l
								{
									OFFSET -0.278611 1.947668 -1.744180
									CHANNELS 3 Xrotation Yrotation Zrotation
									JOINT forarm.l
									{
										OFFSET -0.656402 2.906964 -5.465096
										CHANNELS 3 Xrotation Yrotation Zrotation
										JOINT hand_1.l
										{
											OFFSET 1.213382 3.372078 -5.261601
											CHANNELS 3 Xrotation Yrotation Zrotation
											JOINT finger_1_1.l
											{
												OFFSET 1.915073 -0.154698 -2.425662
												CHANNELS 3 Xrotation Yrotation Zrotation
												JOINT finger_1_2.l
												{
													OFFSET 0.265828 0.018154 -0.982053
													CHANNELS 3 Xrotation Yrotation Zrotation
													JOINT finger_1_2.l_end
													{
														OFFSET 0.259668 -0.058760 -0.818377
														CHANNELS 3 Xrotation Yrotation Zrotation
														End Site
														{
															OFFSET 0.259668 -0.058760 -0.818377
														}
													}
												}
											}
										}
										JOINT hand_2.l
										{
											OFFSET 1.213382 3.372078 -5.261601
											CHANNELS 3 Xrotation Yrotation Zrotation
											JOINT finger_2_1.l
											{
												OFFSET 1.082807 1.055983 -3.153127
												CHANNELS 3 Xrotation Yrotation Zrotation
												JOINT finger_2_2.l
												{
													OFFSET 0.303461 0.229445 -0.943015
													CHANNELS 3 Xrotation Yrotation Zrotation
													JOINT finger_2_3.l
													{
														OFFSET 0.164459 -0.032780 -0.944187
														CHANNELS 3 Xrotation Yrotation Zrotation
														JOINT finger_2_3.l_end
														{
															OFFSET 0.124730 -0.053766 -0.660824
															CHANNELS 3 Xrotation Yrotation Zrotation
															End Site
															{
																OFFSET 0.124730 -0.053766 -0.660825
															}
														}
													}
												}
											}
										}
										JOINT hand_3.l
										{
											OFFSET 1.213382 3.372078 -5.261601
											CHANNELS 3 Xrotation Yrotation Zrotation
											JOINT finger_3_1.l
											{
												OFFSET 0.438745 1.366320 -3.503445
												CHANNELS 3 Xrotation Yrotation Zrotation
												JOINT finger_3_2.l
												{
													OFFSET 0.039193 0.200943 -0.808669
													CHANNELS 3 Xrotation Yrotation Zrotation
													JOINT finger_3_3.l
													{
														OFFSET 0.045546 0.076140 -0.989924
														CHANNELS 3 Xrotation Yrotation Zrotation
														JOINT finger_3_3.l_end
														{
															OFFSET -0.026910 0.082433 -0.590995
															CHANNELS 3 Xrotation Yrotation Zrotation
															End Site
															{
																OFFSET -0.026910 0.082433 -0.590995
															}
														}
													}
												}
											}
										}
										JOINT hand_4.l
										{
											OFFSET 1.213382 3.372078 -5.261601
											CHANNELS 3 Xrotation Yrotation Zrotation
											JOINT finger_4_1.l
											{
												OFFSET -0.299673 1.339034 -3.150754
												CHANNELS 3 Xrotation Yrotation Zrotation
												JOINT finger_4_2.l
												{
													OFFSET -0.040232 0.259658 -0.991301
													CHANNELS 3 Xrotation Yrotation Zrotation
													JOINT finger_4_3.l
													{
														OFFSET -0.049955 -0.074366 -0.704639
														CHANNELS 3 Xrotation Yrotation Zrotation
														JOINT finger_4_3.l_end
														{
															OFFSET -0.038561 0.010272 -0.631543
															CHANNELS 3 Xrotation Yrotation Zrotation
															End Site
															{
																OFFSET -0.038561 0.010272 -0.631544
															}
														}
													}
												}
											}
										}
										JOINT hand_5.l
										{
											OFFSET 1.213382 3.372078 -5.261601
											CHANNELS 3 Xrotation Yrotation Zrotation
											JOINT finger_5_1.l
											{
												OFFSET -0.897300 1.214401 -3.085588
												CHANNELS 3 Xrotation Yrotation Zrotation
												JOINT finger_5_2.l
												{
													OFFSET -0.175868 0.027259 -0.471411
													CHANNELS 3 Xrotation Yrotation Zrotation
													JOINT finger_5_3.l
													{
														OFFSET -0.183997 -0.195309 -0.687122
														CHANNELS 3 Xrotation Yrotation Zrotation
														JOINT finger_5_3.l_end
														{
															OFFSET -0.109424 -0.138382 -0.509002
															CHANNELS 3 Xrotation Yrotation Zrotation
															End Site
															{
																OFFSET -0.109424 -0.138382 -0.509002
															}
														}
													}
												}
											}
										}
									}
								}
							}
						}
						JOINT lats.r
						{
							OFFSET 0.787371 0.000134 4.437727
							CHANNELS 6 Xposition Yposition Zposition Xrotation Yrotation Zrotation
							JOINT shoulder.r
							{
								OFFSET 0.465146 -4.086555 -1.588903
								CHANNELS 3 Xrotation Yrotation Zrotation
								JOINT upper_arm.r
								{
									OFFSET -0.284825 -1.931523 -1.744180
									CHANNELS 3 Xrotation Yrotation Zrotation
									JOINT forarm.r
									{
										OFFSET -0.654372 -2.870988 -5.465096
										CHANNELS 3 Xrotation Yrotation Zrotation
										JOINT hand_1.r
										{
											OFFSET 0.752152 -3.427905 -5.261599
											CHANNELS 3 Xrotation Yrotation Zrotation
											JOINT finger_1_1.r
											{
												OFFSET 1.880342 0.268991 -2.425664
												CHANNELS 3 Xrotation Yrotation Zrotation
												JOINT finger_1_2.r
												{
													OFFSET 0.412765 -0.031263 -0.982053
													CHANNELS 3 Xrotation Yrotation Zrotation
													JOINT finger_1_2.r_end
													{
														OFFSET 0.265487 -0.028934 -0.818377
														CHANNELS 3 Xrotation Yrotation Zrotation
														End Site
														{
															OFFSET 0.265487 -0.028934 -0.818377
														}
													}
												}
											}
										}
										JOINT hand_2.r
										{
											OFFSET 0.752152 -3.427905 -5.261599
											CHANNELS 3 Xrotation Yrotation Zrotation
											JOINT finger_2_1.r
											{
												OFFSET 1.098547 -1.108187 -3.153125
												CHANNELS 3 Xrotation Yrotation Zrotation
												JOINT finger_2_2.r
												{
													OFFSET 0.291755 0.021010 -0.943020
													CHANNELS 3 Xrotation Yrotation Zrotation
													JOINT finger_2_3.r
													{
														OFFSET 0.186568 0.006100 -0.944185
														CHANNELS 3 Xrotation Yrotation Zrotation
														JOINT finger_2_3.r_end
														{
															OFFSET 0.133039 -0.006334 -0.660824
															CHANNELS 3 Xrotation Yrotation Zrotation
															End Site
															{
																OFFSET 0.133039 -0.006334 -0.660825
															}
														}
													}
												}
											}
										}
										JOINT hand_3.r
										{
											OFFSET 0.752152 -3.427905 -5.261599
											CHANNELS 3 Xrotation Yrotation Zrotation
											JOINT finger_3_1.r
											{
												OFFSET 0.373696 -1.343682 -3.332383
												CHANNELS 3 Xrotation Yrotation Zrotation
												JOINT finger_3_2.r
												{
													OFFSET 0.085230 -0.157215 -0.979734
													CHANNELS 3 Xrotation Yrotation Zrotation
													JOINT finger_3_3.r
													{
														OFFSET 0.018107 -0.037604 -0.989924
														CHANNELS 3 Xrotation Yrotation Zrotation
														JOINT finger_3_3.r_end
														{
															OFFSET 0.010870 -0.087893 -0.590995
															CHANNELS 3 Xrotation Yrotation Zrotation
															End Site
															{
																OFFSET 0.010870 -0.087893 -0.590994
															}
														}
													}
												}
											}
										}
										JOINT hand_4.r
										{
											OFFSET 0.752152 -3.427905 -5.261599
											CHANNELS 3 Xrotation Yrotation Zrotation
											JOINT finger_4_1.r
											{
												OFFSET -0.266866 -1.284353 -3.150754
												CHANNELS 3 Xrotation Yrotation Zrotation
												JOINT finger_4_2.r
												{
													OFFSET -0.081403 -0.106487 -0.991301
													CHANNELS 3 Xrotation Yrotation Zrotation
													JOINT finger_4_3.r
													{
														OFFSET -0.046220 0.038109 -0.704639
														CHANNELS 3 Xrotation Yrotation Zrotation
														JOINT finger_4_3.r_end
														{
															OFFSET -0.054081 -0.011491 -0.631543
															CHANNELS 3 Xrotation Yrotation Zrotation
															End Site
															{
																OFFSET -0.054081 -0.011491 -0.631543
															}
														}
													}
												}
											}
										}
										JOINT hand_5.r
										{
											OFFSET 0.752152 -3.427905 -5.261599
											CHANNELS 3 Xrotation Yrotation Zrotation
											JOINT finger_5_1.r
											{
												OFFSET -0.929662 -1.118169 -3.085588
												CHANNELS 3 Xrotation Yrotation Zrotation
												JOINT finger_5_2.r
												{
													OFFSET -0.166172 0.015477 -0.471413
													CHANNELS 3 Xrotation Yrotation Zrotation
													JOINT finger_5_3.r
													{
														OFFSET -0.186638 0.183818 -0.687119
														CHANNELS 3 Xrotation Yrotation Zrotation
														JOINT finger_5_3.r_end
														{
															OFFSET -0.064874 0.172217 -0.509002
															CHANNELS 3 Xrotation Yrotation Zrotation
															End Site
															{
																OFFSET -0.064874 0.172217 -0.509002
															}
														}
													}
												}
											}
										}
									}
								}
							}
						}
					}
				}
			}
		}
	}
	JOINT hip.l
	{
		OFFSET -0.441137 0.000000 -0.879299
		CHANNELS 6 Xposition Yposition Zposition Xrotation Yrotation Zrotation
		JOINT upper_leg.l
		{
			OFFSET 0.314229 2.757148 -1.947668
			CHANNELS 3 Xrotation Yrotation Zrotation
			JOINT lower_leg.l
			{
				OFFSET -1.127799 1.126559 -10.151125
				CHANNELS 3 Xrotation Yrotation Zrotation
				JOINT foot_1.l
				{
					OFFSET -0.944283 0.488371 -12.211979
					CHANNELS 3 Xrotation Yrotation Zrotation
					JOINT foot_2.l
					{
						OFFSET 1.946432 0.043195 -1.464783
						CHANNELS 3 Xrotation Yrotation Zrotation
						JOINT foot_2.l_end
						{
							OFFSET 2.546019 0.158223 -0.481493
							CHANNELS 3 Xrotation Yrotation Zrotation
							End Site
							{
								OFFSET 2.546019 0.158223 -0.481493
							}
						}
					}
				}
			}
		}
	}
	JOINT hip.r
	{
		OFFSET -0.435242 0.002287 -0.879299
		CHANNELS 6 Xposition Yposition Zposition Xrotation Yrotation Zrotation
		JOINT upper_leg.r
		{
			OFFSET 0.304085 -2.902024 -1.947668
			CHANNELS 3 Xrotation Yrotation Zrotation
			JOINT lower_leg.r
			{
				OFFSET -1.129197 -1.069468 -10.151123
				CHANNELS 3 Xrotation Yrotation Zrotation
				JOINT foot_1.r
				{
					OFFSET -0.940627 -0.441122 -12.211980
					CHANNELS 3 Xrotation Yrotation Zrotation
					JOINT foot_2.r
					{
						OFFSET 1.941922 -0.139302 -1.464783
						CHANNELS 3 Xrotation Yrotation Zrotation
						JOINT foot_2.r_end
						{
							OFFSET 2.544673 -0.283811 -0.481493
							CHANNELS 3 Xrotation Yrotation Zrotation
							End Site
							{
								OFFSET 2.544673 -0.283811 -0.481493
							}
						}
					}
				}
			}
		}
	}
}
MOTION
Frames: 4
Frame Time: 0.041667
-0.440887 -0.000000 -1.068666 -0.000002 10.047976 0.000003 0.000001 -12.604359 -0.000000 0.000001 6.157405 0.000001 0.000001 0.000001 -0.000000 -0.000000 2.349515 0.000000 0.778250 -0.000000 4.437732 -0.000000 0.000002 -0.000000 0.000000 -6.795356 -0.000000 -0.000000 0.000005 -0.000000 -0.000000 -0.000000 0.000000 0.778250 -0.000001 4.437731 3.740898 -0.228287 -6.981861 3.435923 -0.423265 -14.041564 -16.610957 -19.790087 3.808537 -7.077063 29.694063 -8.943893 23.539858 8.327944 -2.303438 3.033916 -9.777961 -5.638374 -0.000001 0.000001 0.000006 -0.000001 -0.000003 0.000002 -0.521569 -2.538461 64.272845 -0.000000 0.000005 0.000002 -13.719708 -1.966299 3.352665 -0.000001 0.000000 0.000007 -0.000002 0.000001 0.000002 -0.521564 -2.538436 64.272852 -0.000008 0.000002 -0.000005 -19.192483 -2.969963 4.550567 -17.250841 -2.600494 4.136094 -0.000003 0.000001 -0.000001 -0.521571 -2.538447 64.272845 -0.000012 -0.000001 -0.000000 -9.558145 -1.284025 2.383883 -19.717318 -3.072291 4.660520 0.000001 -0.000001 0.000001 -0.521562 -2.538443 64.272838 0.000004 -0.000002 0.000006 -8.817566 -1.170234 2.206685 0.000001 -0.000003 0.000000 -0.000004 -0.000002 -0.000000 0.787371 0.000134 4.437729 -3.846849 -0.241441 7.180320 -3.139714 -0.352569 12.810732 13.958116 -8.618836 -9.059701 -0.907941 8.791550 18.277803 -21.752442 -9.197452 21.654654 -0.155617 0.726880 -0.697674 0.000004 0.000002 -0.000002 0.000001 -0.000002 -0.000003 2.991022 -16.161998 -47.969580 14.098013 4.903278 5.788651 0.000003 -0.000000 -0.000002 10.796696 3.615233 4.526428 0.000005 -0.000002 -0.000001 2.991012 -16.162007 -47.969604 21.639781 6.888907 7.249143 11.152428 3.179671 4.026542 0.000003 -0.000000 0.000000 -0.000003 0.000000 0.000000 2.991037 -16.161998 -47.969600 7.113406 1.897047 2.687440 7.262265 1.940514 2.741442 0.000001 -0.000002 -0.000001 -0.000005 0.000000 -0.000001 2.991024 -16.162002 -47.969566 0.000000 0.000003 -0.000000 -0.000005 -0.000005 0.000000 0.000001 0.000001 0.000002 -0.000001 0.000000 0.000001 -0.441188 0.000000 -1.069451 -0.000006 12.843143 0.000002 -0.916292 -29.801389 -15.235162 -4.777891 20.336181 2.867856 5.133600 1.712645 5.491818 -0.000000 -0.000002 -0.000001 -0.000000 0.000001 -0.000000 -0.435440 0.002287 -1.070762 0.000001 12.843141 0.000003 2.875780 -28.931158 8.498085 2.242509 19.760589 -2.199858 -1.910628 0.201689 -0.123326 0.000002 -0.000007 0.000003 0.000000 -0.000001 -0.000000 
-0.442389 -0.000000 -1.108147 -0.000002 10.167636 0.000003 0.000001 -12.604358 -0.000000 0.000001 6.157405 0.000002 0.000001 0.000001 -0.000001 -0.000000 2.349514 0.000000 0.778250 -0.000000 4.437732 -0.000000 -0.000002 -0.000000 0.000000 -6.795357 -0.000000 -0.000000 0.000004 -0.000000 -0.000000 -0.000001 0.000000 0.778249 -0.000001 4.437732 3.740898 -0.228289 -6.981861 3.496986 -0.481382 -14.111062 -16.277464 -20.317402 3.992059 -7.175183 29.471556 -9.055046 23.051209 7.866592 -2.065380 3.033919 -9.777961 -5.638371 0.000001 0.000001 0.000003 -0.000001 -0.000001 0.000004 -1.130337 -3.013487 64.489594 0.000001 0.000005 0.000001 -13.719713 -1.966302 3.352659 0.000000 0.000000 0.000004 0.000000 0.000000 0.000001 -1.163311 -2.959146 64.413731 -0.000006 0.000003 -0.000000 -19.192480 -2.969968 4.550567 -17.250840 -2.600496 4.136096 0.000001 -0.000000 0.000004 -1.065901 -2.894814 64.432398 -0.000011 0.000001 -0.000002 -9.558145 -1.284023 2.383874 -19.717315 -3.072291 4.660525 0.000000 -0.000002 0.000001 -0.986959 -2.853583 64.442562 -0.000000 -0.000002 0.000002 -8.817567 -1.170234 2.206688 0.000000 0.000002 -0.000003 -0.000001 -0.000001 -0.000002 0.787371 0.000134 4.437728 -3.846849 -0.241441 7.180319 -3.298138 -0.445605 13.117338 13.488880 -10.345367 -8.435521 -0.297560 8.597503 18.079103 -21.630154 -8.846102 21.270587 -0.155613 0.726872 -0.697677 0.000006 0.000004 -0.000004 0.000003 0.000000 0.000002 3.072896 -16.001641 -48.539767 14.098017 4.903281 5.788652 0.000001 -0.000001 0.000000 10.796698 3.615229 4.526430 0.000001 0.000002 -0.000001 3.111192 -15.996252 -48.514246 21.639781 6.888907 7.249145 11.152430 3.179672 4.026543 0.000002 0.000001 -0.000000 0.000003 -0.000000 -0.000000 3.197570 -16.031173 -48.501365 7.113406 1.897047 2.687440 7.262269 1.940515 2.741445 -0.000005 -0.000002 0.000000 -0.000002 -0.000000 0.000000 3.257458 -16.098064 -48.531346 0.000003 0.000003 -0.000002 0.000001 -0.000003 0.000005 0.000004 0.000001 0.000000 -0.000001 0.000000 -0.000000 -0.441414 -0.000122 -1.108977 -0.000006 12.843143 0.000002 -0.787517 -30.123754 -14.721645 -4.613045 20.766295 2.806314 5.049663 1.565638 5.455880 -0.000000 -0.000002 0.000000 -0.000000 -0.000000 -0.000000 -0.436329 0.002621 -1.110723 0.000001 12.843141 0.000003 2.733016 -29.256425 8.042451 2.095992 20.188180 -2.134320 -1.821452 0.055982 -0.097456 -0.000002 -0.000006 0.000002 0.000000 -0.000001 -0.000000 
-0.446431 -0.000000 -1.219560 -0.000002 10.507154 0.000003 0.000001 -12.604359 -0.000000 0.000001 6.157407 0.000001 0.000001 0.000002 -0.000001 -0.000000 2.349514 0.000000 0.778249 -0.000000 4.437732 0.000000 0.000002 -0.000000 0.000000 -6.795354 -0.000000 -0.000000 0.000004 0.000000 -0.000000 -0.000002 0.000000 0.778249 -0.000001 4.437732 3.740898 -0.228286 -6.981861 3.659087 -0.629142 -14.319225 -15.323459 -21.811379 4.519426 -7.457388 28.837947 -9.367862 21.720738 6.628332 -1.409600 3.033919 -9.777963 -5.638378 0.000001 0.000001 -0.000004 0.000001 0.000000 0.000002 -2.754948 -4.314542 65.051814 -0.000002 0.000003 0.000002 -13.719707 -1.966302 3.352662 -0.000000 -0.000000 -0.000001 0.000003 -0.000001 0.000001 -2.872405 -4.119484 64.786755 -0.000003 -0.000001 0.000000 -19.192485 -2.969965 4.550562 -17.250843 -2.600489 4.136091 -0.000002 0.000002 -0.000003 -2.529879 -3.893125 64.858172 -0.000011 0.000001 0.000003 -9.558146 -1.284022 2.383875 -19.717315 -3.072290 4.660519 -0.000000 -0.000002 -0.000003 -2.251876 -3.747054 64.897261 0.000004 -0.000000 -0.000000 -8.817562 -1.170239 2.206686 0.000003 -0.000002 -0.000005 0.000001 0.000001 -0.000000 0.787372 0.000134 4.437730 -3.846848 -0.241441 7.180319 -3.715164 -0.687095 13.964733 12.295587 -15.085593 -6.777754 1.337371 8.063176 17.551368 -21.281370 -7.897642 20.107401 -0.155617 0.726874 -0.697679 0.000002 -0.000000 -0.000004 0.000001 -0.000001 -0.000003 3.285437 -15.621479 -50.177630 14.098014 4.903280 5.788654 0.000000 -0.000002 0.000001 10.796696 3.615230 4.526429 -0.000000 -0.000001 -0.000001 3.419074 -15.604149 -50.089445 21.639778 6.888907 7.249144 11.152429 3.179672 4.026543 0.000005 0.000000 -0.000000 -0.000001 0.000000 -0.000000 3.718569 -15.729975 -50.045069 7.113408 1.897048 2.687441 7.262266 1.940515 2.741446 -0.000001 -0.000001 0.000001 -0.000002 0.000000 0.000001 3.924187 -15.966935 -50.148345 -0.000000 0.000003 0.000001 -0.000001 -0.000002 0.000001 -0.000003 0.000001 -0.000001 -0.000001 -0.000001 -0.000001 -0.442022 -0.000452 -1.220511 -0.000006 12.843143 0.000002 -0.399793 -31.039016 -13.243591 -4.138908 21.990378 2.623149 4.807367 1.144954 5.344650 -0.000001 -0.000002 0.000001 -0.000000 0.000002 -0.000000 -0.438723 0.003519 -1.223431 0.000001 12.843141 0.000003 2.305801 -30.179819 6.730921 1.674228 21.405540 -1.940642 -1.565438 -0.360589 -0.019346 0.000001 -0.000007 0.000003 0.000000 -0.000001 -0.000000 
-0.452321 -0.000000 -1.392363 -0.000002 11.037385 0.000003 0.000001 -12.604359 -0.000000 0.000001 6.157408 0.000001 0.000001 -0.000000 -0.000002 -0.000000 2.349513 0.000000 0.778250 -0.000000 4.437732 0.000000 0.000002 -0.000000 0.000000 -6.795357 -0.000000 -0.000000 0.000005 -0.000000 -0.000000 -0.000001 0.000000 0.778250 -0.000001 4.437732 3.740898 -0.228286 -6.981860 3.890320 -0.827011 -14.665420 -13.795212 -24.141206 5.382100 -7.907257 27.844352 -9.853142 19.758043 4.823634 -0.435515 3.033917 -9.777964 -5.638372 0.000000 0.000001 0.000001 0.000000 -0.000002 0.000003 -5.091062 -6.260577 65.813142 -0.000002 0.000002 -0.000003 -13.719707 -1.966298 3.352669 0.000003 0.000001 0.000001 -0.000001 0.000001 0.000003 -5.323407 -5.870850 65.303206 -0.000003 0.000002 0.000001 -19.192480 -2.969963 4.550567 -17.250843 -2.600492 4.136092 0.000002 -0.000000 0.000002 -4.658127 -5.431752 65.458853 -0.000007 0.000001 0.000002 -9.558146 -1.284022 2.383874 -19.717312 -3.072293 4.660525 0.000001 -0.000002 0.000003 -4.117009 -5.145239 65.544736 -0.000000 -0.000004 0.000001 -8.817564 -1.170231 2.206688 0.000003 -0.000005 -0.000003 -0.000005 0.000005 -0.000002 0.787371 0.000134 4.437730 -3.846849 -0.241441 7.180319 -4.302256 -1.023070 15.244065 10.742615 -22.199930 -4.406379 3.699892 7.255009 16.803877 -20.719003 -6.515293 18.144683 -0.155619 0.726876 -0.697677 0.000005 0.000005 -0.000005 0.000001 -0.000003 0.000002 3.581178 -15.174717 -52.772473 14.098018 4.903278 5.788652 -0.000002 -0.000000 -0.000005 10.796696 3.615234 4.526431 -0.000001 -0.000000 -0.000001 3.838142 -15.146146 -52.605349 21.639784 6.888907 7.249146 11.152422 3.179671 4.026544 0.000009 -0.000000 -0.000001 -0.000004 0.000001 -0.000000 4.407791 -15.399987 -52.521207 7.113406 1.897047 2.687444 7.262273 1.940516 2.741445 -0.000005 -0.000002 0.000000 0.000000 -0.000000 0.000000 4.792179 -15.865440 -52.715485 0.000002 0.000001 0.000001 -0.000004 -0.000003 -0.000000 0.000002 0.000001 -0.000003 -0.000006 0.000000 -0.000001 -0.442907 -0.000932 -1.393491 -0.000006 12.843143 0.000002 0.274916 -32.466150 -10.870354 -3.378037 23.910757 2.310456 4.420112 0.481354 5.151598 0.000001 -0.000001 -0.000000 0.000000 0.000001 -0.000000 -0.442211 0.004828 -1.398121 0.000001 12.843141 0.000003 1.572050 -31.619118 4.624775 0.996368 23.316188 -1.614053 -1.159262 -1.016983 0.113204 0.000002 -0.000004 0.000003 -0.000000 0.000001 -0.000000 
